# xmcd
#
# Track frame offsets:
#	150
#	16999
#	29099
#	44759
#	62209
#	73019
#	82034
#	86273
#	99163
#	116796
#	141462
#	167950
#	185124
#	197928
#	215255
#	230918
#	247926
#	257809
#
# Disc length: 3595 seconds
#
# Revision: 1
# Processed by: cddbd v1.5.2PL0 Copyright (c) Steve Scherf et al.
# Submitted via: EZCDAudioConverter 8.3.2.1
#
DISCID=150e0912
DTITLE=Various Artist - Welcome To New Zealand
DYEAR=2001
DGENRE=Traditional Country
TTITLE0=John Rowles - Islands In The Sun
TTITLE1=Daphne Walker, George Tumahai - Haere Mai
TTITLE2=John Grenell - Blue Smoke
TTITLE3=St Josephs Maori Girls College Choir - Pokarekare Ana
TTITLE4=Howard Morrison And The Tu Taua Group - E Au E, Ka Mata Ahau/Nga Iwi E
TTITLE4=Haere Mai
TTITLE5=New Zealand National Youth Choir - God Defend New Zealand
TTITLE6=Hato Paora College - Ka Mate Ka Mate (Haka)
TTITLE7=Kara Pewhairangi and The Patea Maori Club - Haere Mai
TTITLE8=The Warratahs - Cruisin' On The Interislander
TTITLE9=Rob Winch - New Zealand Kainga Tuturu
TTITLE10=Howard Morrison - How Great Thou Art
TTITLE11=The Patea Maori Club Featuring Dalvanius - Poi E
TTITLE12=Fred Dagg - Gumboots
TTITLE13=New Zealand Symphony Orchestra - The Earnslaw Steam Theme
TTITLE14=John Grenell - I've Been Everywhere
TTITLE15=People For Parks - Parks For People
TTITLE16=Daphne Walker, George Tumahai - Tahi Nei Taru Kino
TTITLE17=St Josephs Maori Girls College Choir - Po Atarau (Now Is The Hour)
EXTD=
EXTT0=
EXTT1=
EXTT2=
EXTT3=
EXTT4=
EXTT5=
EXTT6=
EXTT7=
EXTT8=
EXTT9=
EXTT10=
EXTT11=
EXTT12=
EXTT13=
EXTT14=
EXTT15=
EXTT16=
EXTT17=
PLAYORDER=
